<?xml version="1.0" encoding="UTF-8"?>
<svg xmlns="http://www.w3.org/2000/svg" xmlns:xlink="http://www.w3.org/1999/xlink" width="400" height="300" viewBox="0 0 400 300">
<defs><linearGradient id="lg1" gradientUnits="userSpaceOnUse" x1="0" y1="0" x2="400" y2="300"><stop offset="0" stop-color="rgb(51,76,127)"/><stop offset="1" stop-color="rgb(102,127,178)"/></linearGradient></defs>
<path d="M0 0L400 0L400 300L0 300Z" fill="url(#lg1)" stroke="none"/><path d="M210 150C210 183.1370849898476 183.1370849898476 210 150 210C116.86291501015239 210 90 183.1370849898476 90 150C90 116.86291501015239 116.86291501015239 90 150 90C183.1370849898476 90 210 116.86291501015239 210 150Z" fill="rgb(255,51,51)" stroke="none"/><path d="M230 80L350 80C355.4858377035486 80 360 84.51416229645136 360 90L360 210C360 215.48583770354864 355.4858377035486 220 350 220L230 220C224.51416229645136 220 220 215.48583770354864 220 210L220 90C220 84.51416229645136 224.51416229645136 80 230 80Z" fill="none" stroke="rgb(255,255,255)" stroke-width="3" stroke-linecap="butt" stroke-linejoin="miter" stroke-miterlimit="4"/><path d="M50 250L350 250" fill="none" stroke="rgb(255,204,0)" stroke-width="2" stroke-linecap="butt" stroke-linejoin="miter" stroke-miterlimit="4" stroke-dasharray="10 5"/><g><path transform="matrix(0.955336489125606,-0.29552020666133955,0.29552020666133955,0.955336489125606,290,150)" d="M270.20551152607203 112.47429912639163L327.52570087360834 130.205511526072L309.79448847392797 187.52570087360837L252.47429912639163 169.794488473928Z" fill="rgb(76,204,76)" fill-opacity="0.8" stroke="none"/></g>
</svg>
